<svg xmlns="http://www.w3.org/2000/svg" style="display: none;">
    <defs>
        <symbol id="i-user" viewBox="0 0 24 24">
            <path
                fillRule="evenodd"
                clipRule="evenodd"
                d="M12 2C6.48 2 2 6.48 2 12C2 17.52 6.48 22 12 22C17.52 22 22 17.52 22 12C22 6.48 17.52 2 12 2ZM7.07 18.28C7.5 17.38 10.12 16.5 12 16.5C13.88 16.5 16.51 17.38 16.93 18.28C15.57 19.36 13.86 20 12 20C10.14 20 8.43 19.36 7.07 18.28ZM18.36 16.83C16.93 15.09 13.46 14.5 12 14.5C10.54 14.5 7.07 15.09 5.64 16.83C4.62 15.49 4 13.82 4 12C4 7.59 7.59 4 12 4C16.41 4 20 7.59 20 12C20 13.82 19.38 15.49 18.36 16.83ZM12 6C10.06 6 8.5 7.56 8.5 9.5C8.5 11.44 10.06 13 12 13C13.94 13 15.5 11.44 15.5 9.5C15.5 7.56 13.94 6 12 6ZM12 11C11.17 11 10.5 10.33 10.5 9.5C10.5 8.67 11.17 8 12 8C12.83 8 13.5 8.67 13.5 9.5C13.5 10.33 12.83 11 12 11Z"
                fill="currentcolor"
            />
            <mask
                id="mask0"
                mask-type="alpha"
                maskUnits="userSpaceOnUse"
                x="2"
                y="2"
                width="20"
                height="20"
            >
                <path
                    fillRule="evenodd"
                    clipRule="evenodd"
                    d="M12 2C6.48 2 2 6.48 2 12C2 17.52 6.48 22 12 22C17.52 22 22 17.52 22 12C22 6.48 17.52 2 12 2ZM7.07 18.28C7.5 17.38 10.12 16.5 12 16.5C13.88 16.5 16.51 17.38 16.93 18.28C15.57 19.36 13.86 20 12 20C10.14 20 8.43 19.36 7.07 18.28ZM18.36 16.83C16.93 15.09 13.46 14.5 12 14.5C10.54 14.5 7.07 15.09 5.64 16.83C4.62 15.49 4 13.82 4 12C4 7.59 7.59 4 12 4C16.41 4 20 7.59 20 12C20 13.82 19.38 15.49 18.36 16.83ZM12 6C10.06 6 8.5 7.56 8.5 9.5C8.5 11.44 10.06 13 12 13C13.94 13 15.5 11.44 15.5 9.5C15.5 7.56 13.94 6 12 6ZM12 11C11.17 11 10.5 10.33 10.5 9.5C10.5 8.67 11.17 8 12 8C12.83 8 13.5 8.67 13.5 9.5C13.5 10.33 12.83 11 12 11Z"
                    fill="currentcolor"
                />
            </mask>
            <g mask="url(#mask0)"></g>
        </symbol>

        <symbol id="i-social-instagram" viewBox="0 0 24 24">
            <path 
                d="M7.8 2.00002H16.2C19.4032 2.00002 22 4.59677 22 7.80002V16.2C22 19.4033 19.4032 22 16.2 22H7.8C4.59675 22 2 19.4033 2 16.2V7.80002C2 4.59677 4.59675 2.00002 7.8 2.00002ZM7.6 4C5.61177 4 4 5.61178 4 7.6V16.4C4 18.3882 5.61177 20 7.6 20H16.4C18.3882 20 20 18.3882 20 16.4V7.6C20 5.61178 18.3882 4 16.4 4H7.6ZM17.25 5.5C17.9404 5.5 18.5 6.05965 18.5 6.75C18.5 7.44036 17.9404 8 17.25 8C16.5596 8 16 7.44036 16 6.75C16 6.05965 16.5596 5.5 17.25 5.5ZM12 7C14.7614 7 17 9.23858 17 12C17 14.7614 14.7614 17 12 17C9.23857 17 7 14.7614 7 12C7 9.23858 9.23857 7 12 7ZM12 9C10.3431 9 9 10.3432 9 12C9 13.6569 10.3431 15 12 15C13.6569 15 15 13.6569 15 12C15 10.3432 13.6569 9 12 9Z" 
                fill="currentcolor"
            />
        </symbol>

        <symbol id="i-social-twitter" viewBox="0 0 24 24">
            <path
                d="M22.4592 6.01238C21.6896 6.35373 20.8624 6.58442 19.9944 6.68815C20.8803 6.15701 21.5609 5.31598 21.8813 4.31378C21.052 4.80564 20.1336 5.16278 19.156 5.3552C18.3732 4.52112 17.2579 4 16.0235 4C13.6534 4 11.7317 5.92147 11.7317 8.29155C11.7317 8.6279 11.7697 8.95546 11.8429 9.2696C8.27609 9.0906 5.11375 7.38203 2.99709 4.78551C2.62765 5.41935 2.41601 6.15656 2.41601 6.94309C2.41601 8.43204 3.17364 9.74563 4.32523 10.5153C3.62179 10.4929 2.95996 10.2999 2.38139 9.97846C2.38098 9.99639 2.38098 10.0143 2.38098 10.0324C2.38098 12.1118 3.86033 13.8463 5.82359 14.2406C5.46349 14.3387 5.08434 14.3912 4.69294 14.3912C4.4164 14.3912 4.14755 14.3642 3.88546 14.3142C4.43161 16.0191 6.01653 17.26 7.89454 17.2945C6.42576 18.4457 4.57527 19.1318 2.56453 19.1318C2.21812 19.1318 1.87651 19.1114 1.54077 19.0717C3.44003 20.2894 5.69591 21 8.1195 21C16.0134 21 20.3302 14.4605 20.3302 8.78918C20.3302 8.60314 20.326 8.41805 20.3177 8.23395C21.1563 7.62886 21.8839 6.87302 22.4592 6.01238Z"
                fill="currentcolor"
            />
        </symbol>

        <symbol id="svg-line" viewBox="0 0 72 2">
            <rect width="72" height="2" fill="currentcolor" />
        </symbol>

        <symbol id="svg-arrow-down" viewBox="0 0 16 24">
            <path
                d="M16 16L14.59 14.59L9 20.17V0H7V20.17L1.42 14.58L0 16L8 24L16 16Z"
                fill="currentcolor"
            />
        </symbol>

        <symbol id="svg-arrow-right" viewBox="0 0 24 16">
            <path
                d="M16 -6.99382e-07L14.59 1.41L20.17 7L-3.93402e-07 7L-3.0598e-07 9L20.17 9L14.58 14.58L16 16L24 8L16 -6.99382e-07Z"
                fill="currentcolor"
            />
        </symbol>

        <symbol id="svg-article-01" viewBox="0 0 215 176">
            <path
                opacity="0.1"
                d="M67.6 175.36C46.64 175.36 30.16 167.44 18.16 151.6C6.32 135.6 0.4 114.4 0.4 88C0.4 61.6 6.32 40.48 18.16 24.64C30.16 8.63999 46.64 0.639989 67.6 0.639989C88.72 0.639989 105.2 8.63999 117.04 24.64C128.88 40.48 134.8 61.6 134.8 88C134.8 114.4 128.88 135.6 117.04 151.6C105.2 167.44 88.72 175.36 67.6 175.36ZM42.16 129.04C47.92 138.32 56.4 142.96 67.6 142.96C78.8 142.96 87.28 138.24 93.04 128.8C98.96 119.36 101.92 105.76 101.92 88C101.92 70.08 98.96 56.4 93.04 46.96C87.28 37.52 78.8 32.8 67.6 32.8C56.4 32.8 47.92 37.52 42.16 46.96C36.4 56.4 33.52 70.08 33.52 88C33.52 105.92 36.4 119.6 42.16 129.04ZM185.284 3.99999H214.084V172H180.964V39.04L149.284 47.92L141.124 19.6L185.284 3.99999Z"
                fill="white"
            />
        </symbol>

        <symbol id="svg-article-02" viewBox="0 0 258 176">
            <path
                opacity="0.1"
                d="M67.6 175.36C46.64 175.36 30.16 167.44 18.16 151.6C6.32 135.6 0.4 114.4 0.4 88C0.4 61.6 6.32 40.48 18.16 24.64C30.16 8.63999 46.64 0.639989 67.6 0.639989C88.72 0.639989 105.2 8.63999 117.04 24.64C128.88 40.48 134.8 61.6 134.8 88C134.8 114.4 128.88 135.6 117.04 151.6C105.2 167.44 88.72 175.36 67.6 175.36ZM42.16 129.04C47.92 138.32 56.4 142.96 67.6 142.96C78.8 142.96 87.28 138.24 93.04 128.8C98.96 119.36 101.92 105.76 101.92 88C101.92 70.08 98.96 56.4 93.04 46.96C87.28 37.52 78.8 32.8 67.6 32.8C56.4 32.8 47.92 37.52 42.16 46.96C36.4 56.4 33.52 70.08 33.52 88C33.52 105.92 36.4 119.6 42.16 129.04ZM145.433 172V147.28L202.793 88.24C215.593 74.8 221.993 63.6 221.993 54.64C221.993 48.08 219.913 42.8 215.753 38.8C211.753 34.8 206.553 32.8 200.153 32.8C187.513 32.8 178.153 39.36 172.073 52.48L144.233 36.16C149.513 24.64 157.113 15.84 167.033 9.75999C176.953 3.67999 187.833 0.639989 199.673 0.639989C214.873 0.639989 227.913 5.43999 238.793 15.04C249.673 24.48 255.113 37.28 255.113 53.44C255.113 70.88 245.913 88.8 227.513 107.2L194.633 140.08H257.753V172H145.433Z"
                fill="white"
            />
        </symbol>

        <symbol id="svg-article-03" viewBox="0 0 260 176">
            <path
                opacity="0.1" 
                d="M67.6 175.36C46.64 175.36 30.16 167.44 18.16 151.6C6.32 135.6 0.4 114.4 0.4 88C0.4 61.6 6.32 40.48 18.16 24.64C30.16 8.63999 46.64 0.639989 67.6 0.639989C88.72 0.639989 105.2 8.63999 117.04 24.64C128.88 40.48 134.8 61.6 134.8 88C134.8 114.4 128.88 135.6 117.04 151.6C105.2 167.44 88.72 175.36 67.6 175.36ZM42.16 129.04C47.92 138.32 56.4 142.96 67.6 142.96C78.8 142.96 87.28 138.24 93.04 128.8C98.96 119.36 101.92 105.76 101.92 88C101.92 70.08 98.96 56.4 93.04 46.96C87.28 37.52 78.8 32.8 67.6 32.8C56.4 32.8 47.92 37.52 42.16 46.96C36.4 56.4 33.52 70.08 33.52 88C33.52 105.92 36.4 119.6 42.16 129.04ZM221.095 72.16C232.455 75.52 241.655 81.44 248.695 89.92C255.895 98.24 259.495 108.32 259.495 120.16C259.495 137.44 253.655 150.96 241.975 160.72C230.455 170.48 216.295 175.36 199.495 175.36C186.375 175.36 174.615 172.4 164.215 166.48C153.975 160.4 146.535 151.52 141.895 139.84L170.215 123.52C174.375 136.48 184.135 142.96 199.495 142.96C207.975 142.96 214.535 140.96 219.175 136.96C223.975 132.8 226.375 127.2 226.375 120.16C226.375 113.28 223.975 107.76 219.175 103.6C214.535 99.44 207.975 97.36 199.495 97.36H192.295L179.575 78.16L212.695 34.96H146.935V3.99999H252.535V31.36L221.095 72.16Z" 
                fill="white"
            />
        </symbol>

        <symbol id="i-menu" viewBox="0 0 24 24">
            <path fill="currentcolor" d="M3 6h18v2H3zm0 5h18v2H3zm0 5h18v2H3z" />
        </symbol>

        <symbol id="i-close" viewBox="0 0 24 24">
            <path fill="currentcolor" d="M19 6.41L17.59 5L12 10.59L6.41 5L5 6.41L10.59 12L5 17.59L6.41 19L12 13.41L17.59 19L19 17.59L13.41 12z" />
        </symbol>
    </defs>
</svg>
